<?xml version="1.0" ?>

<!-- Uploaded to: SVG Repo, www.svgrepo.com, Generator: SVG Repo Mixer Tools -->
<svg fill="#000000" width="100%" height="225" viewBox="0 0 64 64" id="Layer_1_1_" version="1.1" xml:space="preserve" xmlns="http://www.w3.org/2000/svg" xmlns:xlink="http://www.w3.org/1999/xlink">

<g>

<path d="M32,5c-2.206,0-4,1.794-4,4s1.794,4,4,4s4-1.794,4-4S34.206,5,32,5z M32,11c-1.103,0-2-0.897-2-2s0.897-2,2-2s2,0.897,2,2   S33.103,11,32,11z"/>

<path d="M60,41h-5.63L46,33.826V41h-4c-1.654,0-3,1.346-3,3v8c0,1.654,1.346,3,3,3h18c1.654,0,3-1.346,3-3v-8   C63,42.346,61.654,41,60,41z M61,52c0,0.552-0.448,1-1,1H42c-0.552,0-1-0.448-1-1v-8c0-0.552,0.448-1,1-1h6v-4.826L53.63,43H60   c0.552,0,1,0.448,1,1V52z"/>

<path d="M44.256,1l-2.768,9.227c-0.164-0.094-0.317-0.201-0.488-0.285C40.969,5.006,36.943,1,32,1s-8.969,4.006-9,8.941   c-2.452,1.213-4.164,3.445-4.756,6.059H4c-1.654,0-3,1.346-3,3v8c0,1.654,1.346,3,3,3h5.63L18,37.174V30h4c1.654,0,3-1.346,3-3   v-0.232C25.644,26.915,26.312,27,27,27v14h-6v6h2v4h-2v6h6v2.414L30.586,63h2.828L37,59.414V27c4.963,0,9-4.037,9-9   c0-2.527-1.046-4.852-2.801-6.515L45.744,3H63V1H44.256z M23,27c0,0.552-0.448,1-1,1h-6v4.826L10.37,28H4c-0.552,0-1-0.448-1-1v-8   c0-0.552,0.448-1,1-1h14c0,1.438,0.347,2.793,0.95,4H18v2h2v-0.355c0.811,1.004,1.835,1.824,3,2.406V27z M23,55v-2h2v-8h-2v-2h4v12   H23z M37,25c-0.298,0-0.589-0.025-0.876-0.062L35,24.798v33.788L32.586,61h-1.172L29,58.586V24.798l-1.124,0.141   C27.589,24.975,27.298,25,27,25c-3.859,0-7-3.141-7-7c0-2.874,1.728-5.424,4.401-6.495l0.674-0.337l-0.053-0.729   C25.012,10.293,25,10.148,25,10c0-3.859,3.141-7,7-7s7,3.141,7,7c0,0.148-0.012,0.293-0.022,0.438l-0.057,0.795l0.678,0.271   C42.272,12.576,44,15.126,44,18C44,21.859,40.859,25,37,25z"/>

<rect height="2" width="15" x="48" y="5"/>

<rect height="2" width="2" x="61" y="9"/>

<rect height="2" width="11" x="48" y="9"/>

<rect height="2" width="2" x="56" y="47"/>

<rect height="2" width="2" x="50" y="47"/>

<rect height="2" width="2" x="44" y="47"/>

<rect height="2" width="2" x="12" y="22"/>

<rect height="2" width="2" x="6" y="22"/>

</g>

</svg>