<?xml version="1.0" encoding="iso-8859-1"?>
<!-- Uploaded to: SVG Repo, www.svgrepo.com, Generator: SVG Repo Mixer Tools -->
<svg fill="#000000" height="225" width="100%" version="1.1" id="Layer_1" xmlns="http://www.w3.org/2000/svg" xmlns:xlink="http://www.w3.org/1999/xlink" 
	 viewBox="0 0 512 512" xml:space="preserve">
<g>
	<g>
		<path d="M503.983,409.386c4.428,0,8.017-3.588,8.017-8.017V119.182c0-2.126-0.844-4.164-2.347-5.669l-85.511-85.511
			c-1.505-1.503-3.543-2.347-5.669-2.347H238.363V24.05c0-13.261-10.789-24.05-24.05-24.05H24.05C10.789,0,0,10.789,0,24.05v258.672
			c0,13.261,10.789,24.05,24.05,24.05h61.461v197.211c0,4.428,3.588,8.017,8.017,8.017h410.455c4.428,0,8.017-3.588,8.017-8.017
			v-59.858c0-4.428-3.588-8.017-8.017-8.017c-4.428,0-8.017,3.588-8.017,8.017v51.841H101.545V306.772h112.768
			c13.261,0,24.05-10.789,24.05-24.05V144.83c0-4.428-3.588-8.017-8.017-8.017s-8.017,3.588-8.017,8.017v137.893
			c0,4.421-3.596,8.017-8.017,8.017H24.05c-4.421,0-8.017-3.596-8.017-8.017V24.05c0-4.421,3.596-8.017,8.017-8.017h190.263
			c4.421,0,8.017,3.596,8.017,8.017v78.029c0,4.428,3.588,8.017,8.017,8.017s8.017-3.588,8.017-8.017V41.687h172.119
			c-0.012,0.177-0.027,0.354-0.027,0.534v76.96c0,4.428,3.588,8.017,8.017,8.017h76.96c0.181,0,0.357-0.015,0.534-0.027V401.37
			C495.967,405.798,499.555,409.386,503.983,409.386z M426.489,111.165V53.024l58.141,58.141H426.489z"/>
	</g>
</g>
<g>
	<g>
		<path d="M198.28,367.699h-53.445c-4.428,0-8.017,3.588-8.017,8.017c0,4.428,3.588,8.017,8.017,8.017h53.445
			c4.428,0,8.017-3.588,8.017-8.017C206.296,371.288,202.708,367.699,198.28,367.699z"/>
	</g>
</g>
<g>
	<g>
		<path d="M198.28,410.455h-53.445c-4.428,0-8.017,3.588-8.017,8.017c0,4.428,3.588,8.017,8.017,8.017h53.445
			c4.428,0,8.017-3.588,8.017-8.017C206.296,414.043,202.708,410.455,198.28,410.455z"/>
	</g>
</g>
<g>
	<g>
		<path d="M358.614,247.983c-32.766,0-63.308,13.023-86.001,36.671c-3.066,3.195-2.962,8.269,0.233,11.335
			c3.196,3.067,8.27,2.962,11.335-0.233c19.641-20.467,46.076-31.739,74.433-31.739c56.876,0,103.148,46.272,103.148,103.148
			c0,56.876-46.272,103.148-103.148,103.148c-56.876,0-103.148-46.272-103.148-103.148c0-16.798,3.908-32.813,11.616-47.601
			c2.046-3.927,0.522-8.768-3.403-10.815c-3.926-2.043-8.768-0.522-10.815,3.404c-8.786,16.859-13.431,35.882-13.431,55.012
			c0,65.717,53.465,119.182,119.182,119.182s119.182-53.465,119.182-119.182S424.33,247.983,358.614,247.983z"/>
	</g>
</g>
<g>
	<g>
		<path d="M376.915,360.217l-12.423-0.366v-44.528h28.326c4.428,0,8.017-3.588,8.017-8.017c0-4.428-3.588-8.017-8.017-8.017h-28.326
			v-9.086c0-4.428-3.588-8.017-8.017-8.017c-4.428,0-8.017,3.588-8.017,8.017v9.086h-8.017c-13.261,0-24.05,10.789-24.05,24.05
			v27.791c0,13.217,10.719,23.98,23.92,24.05l8.147,0.239v43.585h-24.05c-4.428,0-8.017,3.588-8.017,8.017
			c0,4.428,3.588,8.017,8.017,8.017h24.05v9.086c0,4.428,3.588,8.017,8.017,8.017c4.428,0,8.017-3.588,8.017-8.017v-9.086h12.292
			c13.261,0,24.05-10.789,24.05-24.05v-26.722C400.835,371.05,390.116,360.288,376.915,360.217z M348.459,359.38l-7.78-0.229
			c-0.078-0.002-0.157-0.003-0.236-0.003c-4.421,0-8.017-3.596-8.017-8.017V323.34c0-4.421,3.596-8.017,8.017-8.017h8.017V359.38z
			 M384.802,410.99c0,4.421-3.596,8.017-8.017,8.017h-12.292v-43.114l12.056,0.355c0.078,0.002,0.157,0.003,0.236,0.003
			c4.421,0,8.017,3.596,8.017,8.017V410.99z"/>
	</g>
</g>
<g>
	<g>
		<path d="M204.693,25.653H33.67c-4.428,0-8.017,3.588-8.017,8.017v42.756c0,4.428,3.588,8.017,8.017,8.017h171.023
			c4.428,0,8.017-3.588,8.017-8.017V33.67C212.71,29.242,209.122,25.653,204.693,25.653z M196.676,68.409H41.687V41.687h154.99
			V68.409z"/>
	</g>
</g>
<g>
	<g>
		<path d="M67.875,94.063H33.67c-4.428,0-8.017,3.588-8.017,8.017v34.205c0,4.428,3.588,8.017,8.017,8.017h34.205
			c4.428,0,8.017-3.588,8.017-8.017v-34.205C75.891,97.651,72.303,94.063,67.875,94.063z M59.858,128.267H41.687v-18.171h18.171
			V128.267z"/>
	</g>
</g>
<g>
	<g>
		<path d="M136.284,94.063h-34.205c-4.428,0-8.017,3.588-8.017,8.017v34.205c0,4.428,3.588,8.017,8.017,8.017h34.205
			c4.428,0,8.017-3.588,8.017-8.017v-34.205C144.301,97.651,140.712,94.063,136.284,94.063z M128.267,128.267h-18.171v-18.171
			h18.171V128.267z"/>
	</g>
</g>
<g>
	<g>
		<path d="M204.693,94.063h-34.205c-4.428,0-8.017,3.588-8.017,8.017v34.205c0,4.428,3.588,8.017,8.017,8.017h34.205
			c4.428,0,8.017-3.588,8.017-8.017v-34.205C212.71,97.651,209.122,94.063,204.693,94.063z M196.676,128.267h-18.171v-18.171h18.171
			V128.267z"/>
	</g>
</g>
<g>
	<g>
		<path d="M67.875,162.472H33.67c-4.428,0-8.017,3.588-8.017,8.017v34.205c0,4.428,3.588,8.017,8.017,8.017h34.205
			c4.428,0,8.017-3.588,8.017-8.017v-34.205C75.891,166.06,72.303,162.472,67.875,162.472z M59.858,196.676H41.687v-18.171h18.171
			V196.676z"/>
	</g>
</g>
<g>
	<g>
		<path d="M136.284,162.472h-34.205c-4.428,0-8.017,3.588-8.017,8.017v34.205c0,4.428,3.588,8.017,8.017,8.017h34.205
			c4.428,0,8.017-3.588,8.017-8.017v-34.205C144.301,166.06,140.712,162.472,136.284,162.472z M128.267,196.676h-18.171v-18.171
			h18.171V196.676z"/>
	</g>
</g>
<g>
	<g>
		<path d="M67.875,230.881H33.67c-4.428,0-8.017,3.588-8.017,8.017v34.205c0,4.428,3.588,8.017,8.017,8.017h34.205
			c4.428,0,8.017-3.588,8.017-8.017v-34.205C75.891,234.469,72.303,230.881,67.875,230.881z M59.858,265.086H41.687v-18.171h18.171
			V265.086z"/>
	</g>
</g>
<g>
	<g>
		<path d="M136.284,230.881h-34.205c-4.428,0-8.017,3.588-8.017,8.017v34.205c0,4.428,3.588,8.017,8.017,8.017h34.205
			c4.428,0,8.017-3.588,8.017-8.017v-34.205C144.301,234.469,140.712,230.881,136.284,230.881z M128.267,265.086h-18.171v-18.171
			h18.171V265.086z"/>
	</g>
</g>
<g>
	<g>
		<path d="M204.693,162.472h-34.205c-4.428,0-8.017,3.588-8.017,8.017v102.614c0,4.428,3.588,8.017,8.017,8.017h34.205
			c4.428,0,8.017-3.588,8.017-8.017V170.489C212.71,166.06,209.122,162.472,204.693,162.472z M196.676,265.086h-18.171v-86.58
			h18.171V265.086z"/>
	</g>
</g>
<g>
	<g>
		<path d="M475.297,189.04l-43.668-41.467c-3.209-3.05-8.283-2.917-11.333,0.293c-3.05,3.21-2.917,8.284,0.293,11.333l37.701,35.802
			l-6.654,6.654L336.377,86.391c-1.12-1.119-2.545-1.882-4.097-2.192l-29.706-5.941l-14.301-15.769
			c-2.975-3.281-8.047-3.529-11.324-0.554c-3.279,2.974-3.527,8.043-0.554,11.324c0,0,16.484,18.037,17.032,18.398l5.232,26.161
			c0.31,1.552,1.073,2.977,2.192,4.097l127.735,127.736c4.689,4.688,10.847,7.031,17.006,7.031c6.159,0,12.317-2.343,17.005-7.031
			c0,0,0,0,0.001,0l1.511-1.512c9.375-9.377,9.375-24.635,0-34.011l-1.134-1.134l12.471-12.471
			C478.589,197.379,478.521,192.1,475.297,189.04z M313.905,112.296l-3.211-16.062l16.061,3.212l77.266,77.268l-12.848,12.848
			L313.905,112.296z M452.773,236.801l-1.51,1.511c-3.128,3.124-8.213,3.127-11.338,0l-37.412-37.413l12.847-12.848l37.413,37.413
			C455.899,228.589,455.898,233.675,452.773,236.801z"/>
	</g>
</g>
</svg>