<?xml version="1.0" encoding="iso-8859-1"?>
<!-- Uploaded to: SVG Repo, www.svgrepo.com, Generator: SVG Repo Mixer Tools -->
<svg fill="#000000" height="225" width="100%" version="1.1" id="Layer_1" xmlns="http://www.w3.org/2000/svg" xmlns:xlink="http://www.w3.org/1999/xlink" 
	 viewBox="0 0 512 512" xml:space="preserve">
<g>
	<g>
		<g>
			<path d="M507.375,315.605c-14.848-20.695-29.973-21.254-67.608-1.469l-74.506,45.516c-8.459,4.481-26.252,6.996-51.09,7.598
				c-1.159,0.028-2.308,0.052-3.457,0.073c3.863-8.001,2.002-17.801-5.167-28.504c-13.416-20.029-36.598-31.859-61.336-31.859
				h-33.28c-18.068,0-35.277-5.458-48.897-15.723c-11.83-8.922-27.221-15.359-45.33-19.771c-13.107-3.193-27.042-5.18-41.129-6.206
				c-5.832-0.425-11.167-0.653-15.836-0.738v-25.829H0.007V512H59.74v-25.6h110.932c17.502,0,34.947-1.317,52.196-3.946
				l110.609-16.82c3.992-0.047,7.959-0.509,11.9-1.364c10.288-1.486,19.996-6.502,28.021-14.06l129.345-100.728
				C513.007,340.973,514.993,326.22,507.375,315.605z M42.674,494.933h-25.6V255.761h25.6v9.047l-0.002,0V486.4h0.002V494.933z
				 M492.133,336.112l-129.55,100.888l-0.653,0.564c-5.651,5.402-12.315,8.87-19.089,9.828c-3.915,0.83-6.975,1.179-10.035,1.179
				l-112.506,17.01c-16.399,2.499-32.984,3.752-49.627,3.752H59.74V281.593c4.295,0.084,9.215,0.298,14.596,0.69
				c13.208,0.962,26.232,2.82,38.33,5.766c16.037,3.906,29.374,9.484,39.095,16.816c16.661,12.557,37.487,19.163,59.172,19.163
				h33.28c19.158,0,36.977,9.093,47.157,24.29c4.661,6.958,5.008,10.409,3.5,12.329c-1.734,2.206-6.431,4.199-13.158,5.338
				c-5.906,1-12.3,1.234-17.816,1.024c-0.025-0.001-0.051,0.037-0.078,0.092c-0.545-0.109-1.108-0.168-1.685-0.168h-82.927
				c0,0,0,0-0.001,0c-25.499,0.001-42.664,11.237-42.664,34.133c0,4.713,3.82,8.533,8.533,8.533s8.533-3.82,8.533-8.533
				c0-11.578,8.386-17.067,25.6-17.067h82.925c3.727,0,5.115,0.021,16.937,0.234c15.466,0.278,25.039,0.332,35.516,0.078
				c27.468-0.666,47.087-3.44,59.132-9.844l74.471-45.497c30.498-16.014,36.44-15.794,45.321-3.416
				C495.855,328.824,495.257,333.45,492.133,336.112z"/>
			<path d="M170.674,213.333h34.133c4.713,0,8.533-3.821,8.533-8.533v-93.867c0-32.928,26.806-59.733,59.733-59.733
				c32.928,0,59.733,26.806,59.733,59.733V204.8h-25.6c-7.29,0-11.224,8.551-6.479,14.087l51.2,59.733
				c3.406,3.973,9.552,3.973,12.958,0l51.2-59.733c4.745-5.535,0.811-14.087-6.479-14.087h-25.6v-93.867
				C384.007,49.755,334.251,0,273.074,0S162.14,49.755,162.14,110.933V204.8C162.14,209.513,165.961,213.333,170.674,213.333z
				 M179.207,110.933c0-51.752,42.114-93.867,93.867-93.867s93.867,42.114,93.867,93.867v102.4c0,4.713,3.82,8.533,8.533,8.533
				h15.58l-32.647,38.088l-32.647-38.088h15.58c4.713,0,8.533-3.821,8.533-8.533v-102.4c0-42.353-34.447-76.8-76.8-76.8
				c-42.353,0-76.8,34.447-76.8,76.8v85.333h-17.067V110.933z"/>
			<path d="M170.674,255.759h34.133c4.713,0,8.533-3.821,8.533-8.533c0-4.713-3.821-8.533-8.533-8.533h-34.133
				c-4.713,0-8.533,3.82-8.533,8.533C162.14,251.938,165.961,255.759,170.674,255.759z"/>
		</g>
	</g>
</g>
</svg>